SplineFontDB: 3.2
FontName: desalph
FullName: desalph
FamilyName: desalph
Weight: Regular
Copyright: (c) 2002-2004 Kenneth R. Beesley (METAFONT sources); (c) 2021 Fredrick R. Brennan (OpenType version)
UComments: "2021-4-1: Created with FontForge (http://fontforge.org)"
Version: 001.000
ItalicAngle: 0
UnderlinePosition: -81
UnderlineWidth: 40
Ascent: 1638
Descent: 410
InvalidEm: 0
LayerCount: 2
Layer: 0 0 "Back" 1
Layer: 1 0 "Fore" 0
XUID: [1021 607 1006983212 11179440]
StyleMap: 0x0000
FSType: 0
OS2Version: 0
OS2_WeightWidthSlopeOnly: 0
OS2_UseTypoMetrics: 1
CreationTime: 1617332706
ModificationTime: 1617340494
OS2TypoAscent: 0
OS2TypoAOffset: 1
OS2TypoDescent: 0
OS2TypoDOffset: 1
OS2TypoLinegap: 184
OS2WinAscent: 0
OS2WinAOffset: 1
OS2WinDescent: 0
OS2WinDOffset: 1
HheadAscent: 0
HheadAOffset: 1
HheadDescent: 0
HheadDOffset: 1
OS2Vendor: 'PfEd'
Lookup: 1 0 0 "'ss01' Style Set 1 in Deseret (Mormon) lookup 0" { "'ss01' Style Set 1 in Deseret (Mormon) lookup 0-1" ("ss01") } ['ss01' ('DFLT' <'dflt' > 'dsrt' <'dflt' > ) ]
Lookup: 258 0 0 "'kern' Horizontal Kerning in Deseret (Mormon) lookup 0" { "'kern' Horizontal Kerning in Deseret (Mormon) lookup 0-1" [807,0,2] } ['kern' ('DFLT' <'dflt' > 'dsrt' <'dflt' > ) ]
MarkAttachClasses: 1
DEI: 91125
KernClass2: 53 47 "'kern' Horizontal Kerning in Deseret (Mormon) lookup 0-1"
 34 u10400 u10402 u10404 u1041F u10427
 6 u10401
 25 u10403 u1040D u10426.ss01
 6 u10405
 6 u10406
 62 u10407 u10408 u10409 u1040B u1040E u10411 u10412 u10414 u10425
 6 u1040A
 6 u1040C
 6 u1040F
 6 u10410
 6 u10413
 6 u10415
 6 u10416
 13 u10417 u10418
 6 u10419
 6 u1041A
 6 u1041B
 6 u1041C
 6 u1041D
 6 u1041E
 6 u10420
 6 u10421
 6 u10422
 6 u10423
 13 u10424 u10433
 6 u10426
 13 u10428 u1044F
 6 u10429
 53 u1042A u1042B u1042C u1042D u10435 u10447 u1044E.ss01
 13 u1042E u1044E
 55 u1042F u10430 u10431 u10436 u10439 u1043A u1043C u1044D
 6 u10432
 6 u10434
 6 u10437
 6 u10438
 6 u1043B
 6 u1043D
 6 u1043E
 6 u1043F
 6 u10440
 6 u10441
 6 u10442

StartChar: u10400
Encoding: 66560 66560 0
Width: 1022
VWidth: 0
Flags: HMW
LayerCount: 2
Fore
SplineSet
834 659 m 1
 818 895 716 1119 500 1155 c 0
 327 1183 167 1061 148 887 c 1
 107 894 l 1
 137 1083 310 1215 500 1196 c 0
 770 1169 918 885 918 594 c 0
 918 303 770 20 500 -8 c 0
 306 -28 131 108 107 300 c 0
 55 715 558 939 834 659 c 1
836 622 m 1
 588 902 94 698 148 300 c 0
 171 128 329 6 500 33 c 0
 737 70 837 335 836 594 c 0
 836 604 836 612 836 622 c 1
EndSplineSet
Comment: "desalph24.128.ps"
EndChar

StartChar: u10401
Encoding: 66561 66561 1
Width: 956
VWidth: 0
Flags: HMW
LayerCount: 2
Fore
SplineSet
783 940 m 5
 818 961 l 5
 742 1086 622 1182 477 1196 c 4
 293 1213 127 1086 137 914 c 4
 145 776 259 689 400 652 c 5
 239 607 111 495 104 333 c 4
 95 138 273 -10 477 -8 c 4
 636 -6 781 84 851 227 c 5
 815 248 l 5
 751 117 622 27 477 33 c 4
 312 40 178 172 186 333 c 4
 195 513 369 633 559 633 c 5
 559 674 l 5
 392 674 229 760 219 914 c 4
 210 1052 333 1161 477 1155 c 4
 609 1150 714 1054 783 940 c 5
EndSplineSet
Comment: "desalph24.129.ps"
EndChar

StartChar: u10402
Encoding: 66562 66562 2
Width: 1019
VWidth: 0
Flags: HMW
LayerCount: 2
Fore
SplineSet
588 674 m 1
 588 633 l 1
 391 633 206 519 187 333 c 0
 171 173 293 33 453 33 c 0
 731 33 875 341 875 653 c 0
 875 917 702 1155 453 1155 c 0
 316 1155 203 1046 215 914 c 0
 230 751 409 674 588 674 c 1
418 652 m 1
 270 687 151 772 142 914 c 0
 132 1075 282 1196 453 1196 c 0
 724 1196 916 939 916 653 c 0
 916 319 753 -8 453 -8 c 0
 256 -8 92 144 105 333 c 0
 116 498 251 608 418 652 c 1
EndSplineSet
Comment: "desalph24.130.ps"
EndChar

StartChar: u10403
Encoding: 66563 66563 3
Width: 1134
VWidth: 0
Flags: HMW
LayerCount: 2
Fore
SplineSet
551 1196 m 1
 609 1230 687 1215 751 1179 c 0
 942 1071 1019 849 1021 626 c 0
 1023 626 1025 626 1027 626 c 2
 1030 610 l 1
 1027 610 1024 609 1021 609 c 0
 1021 604 1021 599 1021 594 c 0
 1013 287 844 -6 562 -8 c 0
 278 -10 102 284 103 594 c 0
 104 899 274 1189 551 1196 c 1
980 629 m 1
 976 841 906 1055 722 1150 c 0
 667 1178 602 1189 557 1150 c 0
 508 1107 515 1032 540 969 c 0
 614 783 784 653 980 629 c 1
980 609 m 1
 761 617 567 761 499 973 c 0
 476 1045 473 1127 527 1178 c 1
 292 1153 177 873 185 594 c 0
 193 320 313 46 562 33 c 0
 822 20 976 301 980 594 c 0
 980 599 980 604 980 609 c 1
EndSplineSet
Comment: "desalph24.131.ps"
EndChar

StartChar: u10404
Encoding: 66564 66564 4
Width: 1124
VWidth: 0
Flags: HMW
LayerCount: 2
Fore
SplineSet
562 1196 m 0
 846 1196 1021 903 1021 594 c 0
 1021 285 846 -8 562 -8 c 0
 278 -8 103 285 103 594 c 0
 103 903 278 1196 562 1196 c 0
562 1155 m 0
 312 1143 185 870 185 594 c 0
 185 318 312 45 562 33 c 0
 823 21 980 301 980 594 c 0
 980 887 823 1167 562 1155 c 0
EndSplineSet
Comment: "desalph24.132.ps"
EndChar

StartChar: u10405
Encoding: 66565 66565 5
Width: 1124
VWidth: 0
Flags: HMW
LayerCount: 2
Fore
SplineSet
670 1192 m 1
 701 1195 736 1185 772 1160 c 0
 951 1036 1021 814 1021 594 c 0
 1021 293 859 4 582 -8 c 0
 292 -20 103 276 103 594 c 0
 103 955 316 1192 670 1192 c 1
603 33 m 1
 846 48 980 318 980 594 c 0
 980 796 929 1005 765 1119 c 0
 680 1178 603 1134 603 1022 c 2
 603 33 l 1
562 33 m 1
 562 1022 l 2
 562 1081 577 1126 602 1155 c 1
 331 1123 186 901 185 594 c 0
 184 317 319 47 562 33 c 1
EndSplineSet
Comment: "desalph24.133.ps"
EndChar

StartChar: u10406
Encoding: 66566 66566 6
Width: 655
VWidth: 0
Flags: HMW
LayerCount: 2
Fore
SplineSet
305 1188 m 1
 352 1204 l 1
 352 851 l 1
 550 741 l 5
 550 667 l 5
 352 785 l 1
 352 0 l 1
 305 -17 l 1
 305 812 l 1
 107 922 l 5
 107 996 l 5
 305 878 l 1
 305 1188 l 1
EndSplineSet
Comment: "desalph24.134.ps"
EndChar

StartChar: u10407
Encoding: 66567 66567 7
Width: 705
VWidth: 0
Flags: HMW
LayerCount: 2
Fore
SplineSet
554 1196 m 1
 603 1196 l 1
 603 238 l 1
 603 -8 l 1
 578 -8 l 1
 540 82 452 140 355 141 c 0
 261 142 176 90 133 7 c 1
 106 -24 l 1
 108 111 220 218 355 215 c 0
 454 213 541 148 572 55 c 1
 554 238 l 1
 554 1196 l 1
EndSplineSet
Comment: "desalph24.135.ps"
EndChar

StartChar: u10408
Encoding: 66568 66568 8
Width: 657
VWidth: 0
Flags: HMW
LayerCount: 2
Fore
SplineSet
506 1196 m 1
 555 1196 l 1
 555 238 l 1
 555 45 l 1
 555 0 l 1
 555 -29 l 1
 518 -0 l 1
 514 0 l 1
 514 3 l 1
 105 320 l 1
 105 402 l 1
 512 80 l 1
 506 238 l 1
 506 1196 l 1
EndSplineSet
Comment: "desalph24.136.ps"
EndChar

StartChar: u10409
Encoding: 66569 66569 9
Width: 862
VWidth: 0
Flags: HMW
LayerCount: 2
Fore
SplineSet
711 1196 m 1
 760 1196 l 1
 760 -8 l 1
 486 315 l 1
 376 -8 l 1
 105 315 l 1
 105 397 l 1
 376 74 l 1
 486 397 l 1
 715 120 l 1
 711 1196 l 1
EndSplineSet
Comment: "desalph24.137.ps"
EndChar

StartChar: u1040A
Encoding: 66570 66570 10
Width: 697
VWidth: 0
Flags: HMW
LayerCount: 2
Fore
SplineSet
102 -8 m 1
 102 950 l 1
 102 1196 l 1
 127 1196 l 1
 163 1105 252 1044 350 1044 c 0
 457 1044 551 1114 582 1216 c 1
 589 1176 l 1
 571 1059 469 973 350 975 c 0
 251 977 164 1041 133 1133 c 1
 152 950 l 1
 152 -8 l 1
 102 -8 l 1
EndSplineSet
Comment: "desalph24.138.ps"
EndChar

StartChar: u1040B
Encoding: 66571 66571 11
Width: 661
VWidth: 0
Flags: HMW
LayerCount: 2
Fore
SplineSet
518 668 m 1
 518 1069 l 2
 518 1146 426 1185 338 1159 c 0
 241 1131 167 1049 168 950 c 0
 169 786 344 707 518 668 c 1
518 646 m 1
 312 678 105 763 106 950 c 0
 107 1074 213 1167 338 1192 c 0
 447 1214 559 1165 559 1069 c 0
 559 -8 l 1
 518 -8 l 1
 518 646 l 1
EndSplineSet
Comment: "desalph24.139.ps"
EndChar

StartChar: u1040C
Encoding: 66572 66572 12
Width: 817
VWidth: 0
Flags: HMW
LayerCount: 2
Fore
SplineSet
403 1196 m 1
 469 1196 l 1
 469 1070 469 580 469 430 c 1
 631 389 737 227 706 59 c 1
 690 59 l 1
 709 210 613 350 469 389 c 1
 467 251 448 49 338 -8 c 0
 220 -69 80 54 108 214 c 0
 132 355 263 447 406 440 c 1
 398 600 396 1073 403 1196 c 1
409 398 m 1
 287 405 172 332 149 214 c 0
 122 79 244 -23 338 33 c 0
 435 90 418 276 409 398 c 1
EndSplineSet
Comment: "desalph24.140.ps"
EndChar

StartChar: u1040D
Encoding: 66573 66573 13
Width: 971
VWidth: 0
Flags: HMW
LayerCount: 2
Fore
SplineSet
522 614 m 1
 522 573 l 1
 349 573 191 466 186 303 c 0
 181 149 320 33 481 33 c 0
 721 33 817 318 817 594 c 0
 817 599 817 604 817 609 c 1
 598 619 416 790 396 1013 c 0
 391 1075 401 1140 449 1178 c 1
 308 1161 202 1037 211 891 c 0
 220 732 360 614 522 614 c 1
380 597 m 1
 246 642 146 750 145 891 c 0
 144 1065 300 1195 480 1196 c 1
 529 1217 589 1207 640 1179 c 0
 826 1078 856 845 858 626 c 0
 860 626 863 626 865 626 c 2
 867 610 l 1
 864 610 861 609 858 609 c 0
 858 604 858 599 858 594 c 0
 858 296 743 -8 481 -8 c 0
 282 -8 100 118 104 303 c 0
 107 453 228 557 380 597 c 1
817 629 m 1
 815 839 793 1064 611 1150 c 0
 568 1170 517 1177 479 1150 c 0
 437 1120 430 1062 437 1009 c 0
 463 809 621 654 817 629 c 1
EndSplineSet
Comment: "desalph24.141.ps"
EndChar

StartChar: u1040E
Encoding: 66574 66574 14
Width: 991
VWidth: 0
Flags: HMW
LayerCount: 2
Fore
SplineSet
102 1196 m 1
 176 1196 l 1
 176 238 l 0
 176 133 237 33 334 33 c 0
 431 33 492 133 492 238 c 0
 492 653 l 1
 532 653 l 1
 532 238 l 0
 532 133 593 33 690 33 c 0
 787 33 848 133 848 238 c 0
 848 1196 l 1
 889 1196 l 1
 889 238 l 0
 889 110 809 -8 690 -8 c 0
 606 -8 542 51 511 130 c 1
 480 55 417 -2 334 -8 c 0
 204 -18 102 101 102 238 c 0
 102 1196 l 1
EndSplineSet
Comment: "desalph24.142.ps"
EndChar

StartChar: u1040F
Encoding: 66575 66575 15
Width: 1132
VWidth: 0
Flags: HMW
LayerCount: 2
Fore
SplineSet
523 706 m 1
 505 950 442 1155 303 1155 c 0
 215 1155 147 1104 147 1003 c 4
 147 879 321 749 523 706 c 1
942 1196 m 1
 1024 1196 l 1
 825 665 l 1
 899 660 968 659 1023 661 c 1
 1025 645 l 1
 968 643 897 645 819 650 c 1
 572 -8 l 1
 522 129 542 428 524 688 c 1
 302 733 106 868 106 1003 c 4
 106 1126 194 1196 303 1196 c 0
 452 1196 521 966 546 701 c 1
 617 687 691 677 762 670 c 1
 942 1196 l 1
582 144 m 1
 757 655 l 1
 688 661 617 671 547 684 c 1
 564 497 564 294 582 144 c 1
EndSplineSet
Comment: "desalph24.143.ps"
EndChar

StartChar: u10410
Encoding: 66576 66576 16
Width: 806
VWidth: 0
Flags: HMW
LayerCount: 2
Fore
SplineSet
337 -8 m 1
 337 187 337 552 337 758 c 1
 201 796 107 924 107 1069 c 0
 107 1130 150 1183 210 1194 c 1
 222 1182 l 1
 166 1174 124 1126 124 1069 c 0
 124 940 214 832 337 799 c 1
 339 935 358 1139 468 1196 c 0
 586 1257 724 1134 697 974 c 0
 673 832 542 739 399 748 c 1
 420 546 421 184 402 -8 c 1
 337 -8 l 1
395 790 m 1
 518 783 633 855 656 974 c 0
 682 1108 563 1209 468 1155 c 0
 370 1099 382 914 395 790 c 1
EndSplineSet
Comment: "desalph24.144.ps"
EndChar

StartChar: u10411
Encoding: 66577 66577 17
Width: 971
VWidth: 0
Flags: HMW
LayerCount: 2
Fore
SplineSet
107 1131 m 1
 140 1188 l 1
 869 1188 l 1
 869 12 l 1
 798 -29 l 1
 798 1131 l 1
 107 1131 l 1
EndSplineSet
Comment: "desalph24.145.ps"
EndChar

StartChar: u10412
Encoding: 66578 66578 18
Width: 905
VWidth: 0
Flags: HMW
LayerCount: 2
Fore
SplineSet
738 1185 m 1
 802 1196 l 1
 802 3 l 1
 738 -8 l 1
 738 71 l 1
 659 19 566 -8 471 -8 c 0
 240 -8 58 184 114 389 c 0
 144 497 234 567 342 597 c 1
 293 616 251 644 217 681 c 1
 191 677 164 675 140 673 c 1
 138 689 l 1
 160 690 183 692 206 694 c 1
 163 746 137 812 139 885 c 0
 144 1069 317 1196 510 1196 c 0
 602 1196 692 1165 738 1105 c 1
 738 1185 l 1
738 912 m 1
 663 796 464 725 282 692 c 1
 330 644 397 614 471 614 c 1
 471 573 l 1
 348 573 233 504 196 389 c 0
 139 212 280 33 471 33 c 0
 567 33 660 63 738 119 c 1
 738 912 l 1
271 702 m 1
 493 735 741 830 733 1000 c 0
 728 1101 620 1155 510 1155 c 0
 350 1155 210 1041 204 885 c 0
 202 815 227 750 271 702 c 1
EndSplineSet
Comment: "desalph24.146.ps"
EndChar

StartChar: u10413
Encoding: 66579 66579 19
Width: 774
VWidth: 0
Flags: HMW
LayerCount: 2
Fore
SplineSet
106 831 m 1
 106 1021 224 1196 401 1196 c 0
 571 1196 672 1017 672 831 c 2
 672 -8 l 1
 606 -8 l 1
 606 831 l 2
 606 992 542 1155 401 1155 c 0
 246 1155 147 998 147 831 c 1
 106 831 l 1
EndSplineSet
Comment: "desalph24.147.ps"
EndChar

StartChar: u10414
Encoding: 66580 66580 20
Width: 934
VWidth: 0
Flags: HMW
LayerCount: 2
Fore
SplineSet
768 1185 m 1
 832 1196 l 1
 832 3 l 1
 768 -8 l 1
 768 73 l 1
 682 20 582 -8 480 -8 c 0
 238 -8 121 252 105 527 c 1
 104 527 104 526 103 526 c 1
 103 543 l 2
 104 543 l 0
 103 560 103 577 103 594 c 0
 103 870 274 1196 521 1196 c 0
 615 1196 709 1161 757 1082 c 0
 761 1075 765 1070 768 1063 c 1
 768 1185 l 1
768 855 m 1
 688 709 443 597 170 539 c 1
 180 284 260 33 480 33 c 0
 583 33 683 63 768 120 c 1
 768 855 l 1
169 555 m 1
 548 635 875 817 725 1056 c 0
 682 1124 602 1155 521 1155 c 0
 299 1155 169 847 169 594 c 0
 169 581 169 568 169 555 c 1
EndSplineSet
Comment: "desalph24.148.ps"
EndChar

StartChar: u10415
Encoding: 66581 66581 21
Width: 969
VWidth: 0
Flags: HMW
LayerCount: 2
Fore
SplineSet
848 913 m 0
 844 906 839 898 833 892 c 0
 818 877 797 868 775 868 c 0
 753 868 732 877 717 892 c 0
 702 907 693 928 693 950 c 0
 693 972 702 993 717 1008 c 0
 732 1023 753 1032 775 1032 c 0
 788 1032 801 1029 813 1023 c 1
 773 1110 634 1198 480 1155 c 0
 259 1093 185 837 185 594 c 0
 185 360 268 120 480 41 c 0
 609 -7 755 26 851 125 c 1
 863 113 l 1
 766 8 619 -35 480 0 c 0
 230 64 103 327 103 594 c 0
 103 873 223 1154 480 1196 c 0
 714 1234 908 1022 848 913 c 0
EndSplineSet
Comment: "desalph24.149.ps"
EndChar

StartChar: u10416
Encoding: 66582 66582 22
Width: 817
VWidth: 0
Flags: HMW
LayerCount: 2
Fore
SplineSet
693 935 m 0
 690 919 683 904 671 892 c 0
 656 877 635 868 613 868 c 0
 591 868 570 877 555 892 c 0
 540 907 531 928 531 950 c 0
 531 972 540 993 555 1008 c 0
 570 1023 591 1032 613 1032 c 0
 624 1032 635 1030 645 1026 c 1
 612 1088 533 1150 441 1155 c 0
 293 1164 170 1041 170 891 c 0
 170 624 502 500 677 702 c 1
 712 723 l 1
 408 -8 l 1
 326 -8 l 1
 641 638 l 1
 444 470 105 599 105 891 c 0
 105 1075 262 1219 441 1196 c 0
 592 1176 713 1029 693 935 c 0
EndSplineSet
Comment: "desalph24.150.ps"
EndChar

StartChar: u10417
Encoding: 66583 66583 23
Width: 1183
VWidth: 0
Flags: HMW
LayerCount: 2
Fore
SplineSet
589 238 m 0
 602 416 l 2
 618 416 l 2
 630 238 l 0
 637 135 731 28 829 33 c 0
 1029 43 1076 411 1028 653 c 0
 978 905 848 1155 610 1155 c 0
 372 1155 242 904 192 653 c 0
 145 416 182 51 380 33 c 0
 481 24 582 131 589 238 c 0
609 134 m 1
 568 47 473 -19 380 -8 c 0
 163 18 77 402 110 653 c 0
 148 945 336 1210 610 1196 c 0
 870 1183 1024 925 1068 653 c 0
 1109 402 1043 17 829 -8 c 0
 739 -18 648 48 609 134 c 1
EndSplineSet
Comment: "desalph24.151.ps"
EndChar

StartChar: u10418
Encoding: 66584 66584 24
Width: 1181
VWidth: 0
Flags: HMW
LayerCount: 2
Fore
SplineSet
603 416 m 2
 619 416 l 2
 631 238 l 0
 631 237 l 0
 638 133 732 27 830 33 c 0
 998 43 1047 303 1039 527 c 1
 595 546 352 998 567 1168 c 0
 570 1170 573 1173 576 1175 c 1
 355 1151 239 900 193 653 c 0
 149 417 183 52 381 33 c 0
 482 23 583 131 590 238 c 0
 603 416 l 2
610 134 m 1
 569 47 474 -19 381 -8 c 0
 164 18 75 401 111 653 c 0
 152 937 338 1192 610 1193 c 1
 787 1261 1031 966 1069 653 c 0
 1099 404 1044 18 830 -8 c 0
 740 -19 649 47 610 134 c 1
1038 543 m 1
 1036 581 1033 619 1028 653 c 0
 986 960 754 1264 593 1136 c 0
 395 979 623 564 1038 543 c 1
EndSplineSet
Comment: "desalph24.152.ps"
EndChar

StartChar: u10419
Encoding: 66585 66585 25
Width: 738
VWidth: 0
Flags: HMW
LayerCount: 2
Fore
SplineSet
168 -8 m 1
 102 -8 l 1
 102 950 l 0
 102 1085 215 1192 352 1196 c 0
 525 1201 662 1050 627 885 c 0
 588 705 364 583 168 584 c 1
 168 -8 l 1
168 602 m 1
 348 607 550 720 586 885 c 0
 618 1032 500 1169 352 1155 c 0
 247 1145 168 1056 168 950 c 2
 168 602 l 1
EndSplineSet
Comment: "desalph24.153.ps"
EndChar

StartChar: u1041A
Encoding: 66586 66586 26
Width: 774
VWidth: 0
Flags: HMW
LayerCount: 2
Fore
SplineSet
187 650 m 1
 382 590 644 383 668 205 c 0
 682 101 609 5 505 -8 c 0
 248 -39 102 339 103 653 c 0
 104 962 261 1251 505 1196 c 0
 591 1177 656 1104 648 1019 c 0
 633 854 376 679 187 650 c 1
177 635 m 1
 180 341 278 -10 505 33 c 0
 584 48 636 124 628 205 c 0
 611 376 363 578 177 635 c 1
177 664 m 1
 358 689 602 861 607 1019 c 0
 609 1082 566 1136 505 1155 c 0
 298 1220 180 951 177 664 c 1
EndSplineSet
Comment: "desalph24.154.ps"
EndChar

StartChar: u1041B
Encoding: 66587 66587 27
Width: 971
VWidth: 0
Flags: HMW
LayerCount: 2
Fore
SplineSet
864 57 m 1
 831 0 l 1
 102 0 l 1
 102 1176 l 1
 173 1217 l 1
 173 57 l 1
 864 57 l 1
EndSplineSet
Comment: "desalph24.155.ps"
EndChar

StartChar: u1041C
Encoding: 66588 66588 28
Width: 1042
VWidth: 0
Flags: HMW
LayerCount: 2
Fore
SplineSet
541 607 m 1
 366 331 334 33 548 33 c 0
 759 33 738 336 541 607 c 1
514 642 m 1
 107 1164 l 1
 174 1211 l 1
 555 698 l 1
 921 1193 l 1
 934 1183 l 1
 580 664 l 1
 806 353 792 -8 548 -8 c 0
 311 -8 301 337 514 642 c 1
EndSplineSet
Comment: "desalph24.156.ps"
EndChar

StartChar: u1041D
Encoding: 66589 66589 29
Width: 879
VWidth: 0
Flags: HMW
LayerCount: 2
Fore
SplineSet
333 678 m 1
 262 667 189 658 120 646 c 1
 114 661 l 1
 178 672 247 681 313 691 c 1
 218 756 141 839 145 950 c 0
 150 1095 286 1194 438 1196 c 0
 593 1198 733 1096 731 950 c 0
 729 787 592 728 423 694 c 1
 441 685 459 676 477 667 c 0
 505 653 531 639 557 622 c 1
 622 637 690 649 756 661 c 1
 762 646 l 1
 701 635 637 623 576 609 c 1
 707 518 800 388 770 238 c 0
 740 88 595 -5 438 -8 c 0
 276 -11 124 84 106 238 c 0
 82 438 254 538 471 599 c 1
 447 613 424 626 400 639 c 0
 378 651 355 664 333 678 c 1
492 587 m 1
 279 527 111 430 147 238 c 0
 171 109 301 33 438 33 c 0
 575 33 705 109 729 238 c 0
 758 391 635 500 492 587 c 1
399 706 m 1
 564 738 697 793 690 950 c 0
 685 1072 567 1154 438 1155 c 0
 308 1156 188 1073 186 950 c 0
 184 831 287 763 399 706 c 1
EndSplineSet
Comment: "desalph24.157.ps"
EndChar

StartChar: u1041E
Encoding: 66590 66590 30
Width: 963
VWidth: 0
Flags: HMW
LayerCount: 2
Fore
SplineSet
188 599 m 0
 188 597 187 596 187 594 c 0
 153 339 250 73 482 33 c 0
 651 4 809 127 818 297 c 0
 833 588 483 762 188 599 c 0
194 640 m 1
 511 790 871 605 859 297 c 0
 851 106 675 -33 482 -8 c 0
 219 26 84 310 105 594 c 0
 134 986 396 1217 789 1194 c 1
 830 1194 l 1
 479 1173 255 976 194 640 c 1
EndSplineSet
Comment: "desalph24.158.ps"
EndChar

StartChar: u1041F
Encoding: 66591 66591 31
Width: 934
VWidth: 0
Flags: HMW
LayerCount: 2
Fore
SplineSet
102 1185 m 1
 167 1196 l 1
 167 1115 l 1
 253 1168 353 1196 455 1196 c 0
 717 1196 831 892 831 594 c 0
 831 296 717 -8 455 -8 c 0
 353 -8 253 20 167 73 c 1
 167 3 l 1
 102 -8 l 1
 102 1185 l 1
167 1068 m 1
 167 120 l 1
 252 63 352 33 455 33 c 0
 691 33 766 321 766 594 c 0
 766 867 691 1155 455 1155 c 0
 352 1155 252 1125 167 1068 c 1
EndSplineSet
Comment: "desalph24.159.ps"
EndChar

StartChar: u10420
Encoding: 66592 66592 32
Width: 942
VWidth: 0
Flags: HMW
LayerCount: 2
Fore
SplineSet
276 321 m 0
 276 305 270 289 258 277 c 0
 246 265 231 259 215 259 c 0
 199 259 183 265 171 277 c 0
 160 288 154 303 153 319 c 1
 83 248 178 33 460 33 c 0
 641 33 796 166 776 333 c 0
 757 496 584 569 427 630 c 0
 285 684 142 768 133 914 c 0
 123 1078 282 1196 460 1196 c 0
 844 1196 883 829 706 829 c 0
 690 829 675 835 663 847 c 0
 651 859 645 875 645 891 c 0
 645 907 651 922 663 934 c 0
 675 946 690 952 706 952 c 0
 722 952 738 946 750 934 c 0
 761 923 766 909 767 894 c 1
 826 962 722 1155 460 1155 c 0
 310 1155 178 1051 194 914 c 0
 210 778 360 725 494 677 c 0
 664 617 827 507 837 333 c 0
 848 138 667 -8 460 -8 c 0
 57 -8 30 382 215 382 c 0
 231 382 246 376 258 364 c 0
 270 352 276 337 276 321 c 0
EndSplineSet
Comment: "desalph24.162.ps"
EndChar

StartChar: u10421
Encoding: 66593 66593 33
Width: 882
VWidth: 0
Flags: HMW
LayerCount: 2
Fore
SplineSet
412 1163 m 1
 469 1196 l 1
 469 556 l 1
 621 569 745 685 767 838 c 1
 777 825 l 1
 764 659 632 529 469 515 c 1
 469 25 l 1
 412 -8 l 1
 412 515 l 1
 256 521 105 578 105 713 c 0
 105 847 314 891 412 762 c 1
 412 1163 l 1
412 555 m 1
 412 664 l 1
 367 848 146 828 146 713 c 0
 146 598 278 560 412 555 c 1
EndSplineSet
Comment: "desalph24.167.ps"
EndChar

StartChar: u10422
Encoding: 66594 66594 34
Width: 772
VWidth: 0
Flags: HMW
LayerCount: 2
Fore
SplineSet
668 356 m 1
 668 166 550 -8 373 -8 c 0
 203 -8 102 170 102 356 c 2
 102 1196 l 1
 168 1196 l 1
 168 356 l 2
 168 195 232 33 373 33 c 0
 528 33 627 189 627 356 c 1
 668 356 l 1
EndSplineSet
Comment: "desalph24.171.ps"
EndChar

StartChar: u10423
Encoding: 66595 66595 35
Width: 871
VWidth: 0
Flags: HMW
LayerCount: 2
Fore
SplineSet
272 891 m 0
 272 875 266 859 254 847 c 0
 242 835 227 829 211 829 c 0
 39 829 58 1196 432 1196 c 0
 636 1196 768 992 768 772 c 0
 768 400 512 77 149 -8 c 1
 137 3 l 1
 465 116 686 425 686 772 c 0
 686 964 602 1155 432 1155 c 0
 181 1155 95 968 150 897 c 1
 151 911 157 924 167 934 c 0
 179 946 195 952 211 952 c 0
 227 952 242 946 254 934 c 0
 266 922 272 907 272 891 c 0
EndSplineSet
Comment: "desalph24.172.ps"
EndChar

StartChar: u10424
Encoding: 66596 66596 36
Width: 581
VWidth: 0
Flags: HMW
LayerCount: 2
Fore
SplineSet
102 1180 m 1
 159 1212 l 1
 159 591 l 1
 479 793 l 1
 479 772 l 1
 479 752 l 1
 479 8 l 1
 422 -25 l 1
 422 716 l 1
 102 514 l 1
 102 535 l 1
 102 555 l 1
 102 1180 l 1
EndSplineSet
Comment: "desalph24.174.ps"
EndChar

StartChar: u10425
Encoding: 66597 66597 37
Width: 991
VWidth: 0
Flags: HMW
LayerCount: 2
Fore
SplineSet
102 1196 m 1
 176 1196 l 1
 176 186 l 1
 815 1196 l 1
 889 1196 l 1
 889 -8 l 1
 815 -8 l 1
 815 1114 l 1
 176 104 l 1
 102 -12 l 1
 102 70 l 1
 102 1196 l 1
EndSplineSet
Comment: "desalph24.175.ps"
EndChar

StartChar: u10427
Encoding: 66599 66599 38
Width: 1124
VWidth: 0
Flags: HMW
LayerCount: 2
Fore
SplineSet
582 1196 m 0
 859 1184 1021 895 1021 594 c 0
 1021 293 859 4 582 -8 c 0
 292 -20 103 276 103 594 c 0
 103 912 292 1208 582 1196 c 0
562 1154 m 1
 319 1140 185 870 185 594 c 0
 185 318 319 47 562 33 c 1
 562 759 l 1
 386 855 l 1
 386 916 l 1
 562 809 l 1
 562 1154 l 1
603 33 m 1
 846 47 980 318 980 594 c 0
 980 870 846 1140 603 1154 c 1
 603 785 l 1
 779 689 l 1
 779 628 l 1
 603 735 l 1
 603 33 l 1
EndSplineSet
Substitution2: "'ss01' Style Set 1 in Deseret (Mormon) lookup 0-1" u10427.ss01
Comment: "desalph24.176.ps"
EndChar

StartChar: u10427.ss01
Encoding: 1114112 -1 39
Width: 721
VWidth: 0
Flags: HMW
LayerCount: 2
Fore
SplineSet
232 950 m 0
 232 934 226 919 214 907 c 0
 202 895 186 889 170 889 c 0
 154 889 139 895 127 907 c 0
 115 919 109 934 109 950 c 0
 109 953 109 957 109 960 c 0
 123 1109 259 1216 408 1196 c 0
 532 1179 625 1073 617 950 c 0
 612 874 561 731 492 577 c 1
 609 528 l 1
 588 483 l 1
 474 539 l 1
 366 304 222 53 135 -23 c 1
 106 6 l 1
 194 78 338 323 443 553 c 1
 326 602 l 1
 346 647 l 1
 460 591 l 1
 526 739 573 876 576 950 c 0
 580 1050 507 1136 408 1155 c 0
 294 1177 187 1110 151 1009 c 1
 157 1011 163 1012 170 1012 c 0
 186 1012 202 1006 214 994 c 0
 226 982 232 966 232 950 c 0
EndSplineSet
Comment: "desalph24.177.ps"
EndChar

StartChar: u10428
Encoding: 66600 66600 40
Width: 777
VWidth: 0
Flags: HMW
LayerCount: 2
Fore
SplineSet
606 466 m 1
 594 628 526 783 377 807 c 0
 258 826 149 741 138 621 c 1
 106 626 l 1
 126 758 244 852 377 840 c 0
 568 823 673 622 673 416 c 0
 673 210 568 10 377 -8 c 0
 242 -20 122 76 106 210 c 0
 72 494 411 650 606 466 c 1
607 437 m 1
 434 620 103 481 138 210 c 0
 153 92 260 8 377 25 c 0
 542 49 609 235 608 416 c 0
 608 423 607 430 607 437 c 1
EndSplineSet
Comment: "desalph24.180.ps"
EndChar

StartChar: u10429
Encoding: 66601 66601 41
Width: 732
VWidth: 0
Flags: HMW
LayerCount: 2
Fore
SplineSet
571 657 m 5
 599 673 l 5
 542 758 462 830 361 840 c 4
 234 853 121 760 129 640 c 4
 135 546 211 484 305 457 c 5
 195 424 108 345 103 233 c 4
 96 96 219 -9 361 -8 c 4
 473 -7 573 59 625 158 c 5
 597 174 l 5
 550 84 461 19 361 25 c 4
 250 31 163 123 169 233 c 4
 176 357 292 441 421 441 c 5
 421 474 l 5
 309 474 203 536 195 640 c 4
 188 733 266 809 361 807 c 4
 452 805 520 733 571 657 c 5
EndSplineSet
Comment: "desalph24.182.ps"
EndChar

StartChar: u1042A
Encoding: 66602 66602 42
Width: 775
VWidth: 0
Flags: HMW
LayerCount: 2
Fore
SplineSet
441 474 m 1
 441 441 l 1
 308 441 184 360 169 233 c 0
 156 124 236 25 343 25 c 0
 537 25 639 239 639 457 c 0
 639 641 517 807 343 807 c 0
 253 807 182 729 192 640 c 0
 205 530 322 474 441 474 c 1
317 457 m 1
 219 484 140 544 133 640 c 0
 125 752 226 840 343 840 c 0
 535 840 672 659 672 457 c 0
 672 221 555 -8 343 -8 c 0
 207 -8 94 100 104 233 c 0
 113 347 203 425 317 457 c 1
EndSplineSet
Comment: "desalph24.183.ps"
EndChar

StartChar: u1042B
Encoding: 66603 66603 43
Width: 869
VWidth: 0
Flags: HMW
LayerCount: 2
Fore
SplineSet
418 838 m 1
 460 865 518 853 566 826 c 0
 699 750 755 595 756 439 c 0
 758 439 760 439 762 439 c 2
 765 426 l 1
 762 426 758 425 755 425 c 0
 755 422 755 419 755 416 c 0
 749 199 628 -7 429 -8 c 0
 228 -9 102 197 103 416 c 0
 104 629 225 830 418 838 c 1
722 443 m 1
 718 590 670 736 543 803 c 0
 505 823 457 831 426 803 c 0
 391 772 398 720 418 675 c 0
 473 550 588 462 722 443 c 1
723 426 m 0
 571 433 437 531 386 677 c 0
 368 728 365 786 400 823 c 1
 240 802 163 609 169 416 c 0
 175 226 256 35 429 25 c 0
 611 14 720 211 723 416 c 0
 723 419 723 423 723 426 c 0
EndSplineSet
Comment: "desalph24.184.ps"
EndChar

StartChar: u1042C
Encoding: 66604 66604 44
Width: 859
VWidth: 0
Flags: HMW
LayerCount: 2
Fore
SplineSet
429 840 m 0
 630 840 755 634 755 416 c 0
 755 198 630 -8 429 -8 c 0
 228 -8 103 198 103 416 c 0
 103 634 228 840 429 840 c 0
429 807 m 0
 255 798 169 607 169 416 c 0
 169 225 255 34 429 25 c 0
 612 15 723 211 723 416 c 0
 723 621 612 817 429 807 c 0
EndSplineSet
Comment: "desalph24.185.ps"
EndChar

StartChar: u1042D
Encoding: 66605 66605 45
Width: 859
VWidth: 0
Flags: HMW
LayerCount: 2
Fore
SplineSet
502 836 m 1
 525 840 552 833 580 814 c 0
 706 726 755 570 755 416 c 0
 755 204 642 1 446 -8 c 0
 241 -18 103 191 103 416 c 0
 103 669 254 833 502 836 c 1
462 25 m 1
 630 37 723 224 723 416 c 0
 723 557 688 701 574 781 c 0
 515 822 462 792 462 715 c 2
 462 25 l 1
429 25 m 1
 429 715 l 2
 429 755 439 786 455 807 c 1
 269 782 170 628 169 416 c 0
 168 224 261 36 429 25 c 1
EndSplineSet
Comment: "desalph24.186.ps"
EndChar

StartChar: u1042E
Encoding: 66606 66606 46
Width: 520
VWidth: 0
Flags: HMW
LayerCount: 2
Fore
SplineSet
241 833 m 1
 278 846 l 1
 278 598 l 1
 415 522 l 5
 415 463 l 5
 278 545 l 1
 278 -1 l 1
 241 -15 l 1
 241 566 l 1
 105 642 l 5
 105 701 l 5
 241 619 l 1
 241 833 l 1
EndSplineSet
Comment: "desalph24.187.ps"
EndChar

StartChar: u1042F
Encoding: 66607 66607 47
Width: 548
VWidth: 0
Flags: HMW
LayerCount: 2
Fore
SplineSet
407 840 m 1
 446 840 l 1
 446 166 l 1
 446 -8 l 1
 426 -8 l 1
 402 54 343 94 277 95 c 0
 214 96 156 61 128 4 c 1
 107 -21 l 1
 101 76 180 157 277 154 c 0
 343 152 399 109 420 49 c 1
 407 166 l 1
 407 840 l 1
EndSplineSet
Comment: "desalph24.188.ps"
EndChar

StartChar: u10430
Encoding: 66608 66608 48
Width: 513
VWidth: 0
Flags: HMW
LayerCount: 2
Fore
SplineSet
372 840 m 1
 412 840 l 1
 412 166 l 1
 412 38 l 1
 412 0 l 1
 412 -21 l 1
 384 0 l 1
 379 0 l 1
 379 4 l 1
 105 211 l 1
 105 276 l 1
 376 65 l 1
 372 166 l 1
 372 840 l 1
EndSplineSet
Comment: "desalph24.189.ps"
EndChar

StartChar: u10431
Encoding: 66609 66609 49
Width: 663
VWidth: 0
Flags: HMW
LayerCount: 2
Fore
SplineSet
522 840 m 1
 561 840 l 1
 561 166 l 1
 561 51 l 1
 561 -8 l 1
 527 32 l 1
 369 218 l 1
 294 -8 l 1
 105 218 l 1
 105 283 l 1
 294 57 l 1
 369 283 l 1
 525 95 l 1
 522 166 l 1
 522 840 l 1
EndSplineSet
Comment: "desalph24.190.ps"
EndChar

StartChar: u10432
Encoding: 66610 66610 50
Width: 539
VWidth: 0
Flags: HMW
LayerCount: 2
Fore
SplineSet
102 -8 m 1
 102 665 l 1
 102 840 l 1
 122 840 l 1
 145 777 205 735 272 735 c 0
 346 735 410 785 428 856 c 1
 434 824 l 1
 427 741 356 677 272 679 c 0
 207 681 149 723 128 783 c 1
 142 665 l 1
 142 -8 l 1
 102 -8 l 1
EndSplineSet
Comment: "desalph24.191.ps"
EndChar

StartChar: u10433
Encoding: 66611 66611 51
Width: 514
VWidth: 0
Flags: HMW
LayerCount: 2
Fore
SplineSet
379 470 m 1
 379 748 l 2
 379 799 319 826 262 810 c 0
 197 791 151 732 154 665 c 0
 159 557 269 503 379 470 c 1
379 452 m 1
 244 480 107 538 105 665 c 0
 103 752 174 820 262 836 c 0
 336 850 412 814 412 748 c 0
 412 -8 l 1
 379 -8 l 1
 379 452 l 1
EndSplineSet
Comment: "desalph24.192.ps"
EndChar

StartChar: u10434
Encoding: 66612 66612 52
Width: 637
VWidth: 0
Flags: HMW
LayerCount: 2
Fore
SplineSet
309 840 m 1
 362 840 l 1
 362 752 362 410 362 303 c 1
 476 274 550 160 527 42 c 1
 514 42 l 1
 527 147 461 243 362 270 c 1
 360 172 344 31 266 -8 c 0
 183 -49 88 39 107 150 c 0
 124 247 213 312 311 310 c 1
 305 424 303 754 309 840 c 1
314 277 m 1
 232 279 156 230 140 150 c 0
 121 58 202 -12 266 25 c 0
 334 63 321 192 314 277 c 1
EndSplineSet
Comment: "desalph24.193.ps"
EndChar

StartChar: u10435
Encoding: 66613 66613 53
Width: 748
VWidth: 0
Flags: HMW
LayerCount: 2
Fore
SplineSet
399 432 m 1
 399 399 l 1
 280 399 173 324 169 212 c 0
 166 106 259 25 369 25 c 0
 537 25 603 224 603 416 c 0
 603 419 603 423 603 426 c 1
 452 435 326 551 309 706 c 0
 304 750 311 797 344 825 c 1
 250 811 181 723 188 624 c 0
 195 515 289 432 399 432 c 1
294 418 m 1
 204 452 137 527 136 624 c 0
 135 746 242 839 368 840 c 1
 404 855 447 846 484 826 c 0
 614 754 634 592 636 439 c 0
 638 439 641 439 643 439 c 2
 645 426 l 1
 642 426 639 425 636 425 c 0
 636 422 636 419 636 416 c 0
 636 206 553 -8 369 -8 c 0
 228 -8 100 81 103 212 c 0
 105 317 188 389 294 418 c 1
603 442 m 1
 602 588 587 743 461 803 c 0
 431 817 395 822 369 803 c 0
 339 781 336 740 342 703 c 0
 363 567 470 463 603 442 c 1
EndSplineSet
Comment: "desalph24.203.ps"
EndChar

StartChar: u10436
Encoding: 66614 66614 54
Width: 747
VWidth: 0
Flags: HMW
LayerCount: 2
Fore
SplineSet
102 840 m 1
 161 840 l 1
 161 166 l 0
 161 94 200 25 266 25 c 0
 332 25 371 94 371 166 c 0
 371 457 l 1
 403 457 l 1
 403 166 l 0
 403 94 442 25 508 25 c 0
 574 25 613 94 613 166 c 0
 613 840 l 1
 646 840 l 1
 646 166 l 0
 646 76 592 -8 508 -8 c 0
 451 -8 408 31 386 84 c 1
 364 34 322 -3 266 -8 c 0
 174 -16 102 68 102 166 c 0
 102 840 l 1
EndSplineSet
Comment: "desalph24.204.ps"
EndChar

StartChar: u10437
Encoding: 66615 66615 55
Width: 862
VWidth: 0
Flags: HMW
LayerCount: 2
Fore
SplineSet
396 495 m 1
 380 664 341 807 232 807 c 0
 173 807 138 767 138 698 c 4
 138 612 256 525 396 495 c 1
691 840 m 1
 757 840 l 1
 616 466 l 1
 669 463 717 462 756 464 c 1
 758 451 l 1
 717 449 666 449 611 453 c 1
 437 -8 l 1
 402 89 412 299 397 481 c 1
 241 512 105 603 105 698 c 4
 105 785 156 840 232 840 c 0
 350 840 393 678 414 491 c 1
 464 481 516 475 566 470 c 1
 691 840 l 1
445 114 m 1
 561 457 l 1
 513 461 464 468 416 477 c 1
 429 352 433 217 445 114 c 1
EndSplineSet
Comment: "desalph24.205.ps"
EndChar

StartChar: u10438
Encoding: 66616 66616 56
Width: 625
VWidth: 0
Flags: HMW
LayerCount: 2
Fore
SplineSet
263 -8 m 1
 262 129 262 385 263 530 c 1
 169 557 105 647 105 748 c 0
 105 791 135 828 177 836 c 1
 187 827 l 1
 148 822 118 788 118 748 c 0
 118 659 180 585 264 562 c 1
 266 659 281 801 359 840 c 0
 442 881 537 793 518 682 c 0
 501 584 412 517 314 521 c 1
 330 379 331 126 316 -8 c 1
 263 -8 l 1
310 555 m 1
 393 552 469 602 485 682 c 0
 503 773 424 842 359 807 c 0
 291 770 300 642 310 555 c 1
EndSplineSet
Comment: "desalph24.206.ps"
EndChar

StartChar: u10439
Encoding: 66617 66617 57
Width: 749
VWidth: 0
Flags: HMW
LayerCount: 2
Fore
SplineSet
106 786 m 1
 133 831 l 1
 647 831 l 1
 647 8 l 1
 590 -25 l 1
 590 786 l 1
 106 786 l 1
EndSplineSet
Comment: "desalph24.207.ps"
EndChar

StartChar: u1043A
Encoding: 66618 66618 58
Width: 694
VWidth: 0
Flags: HMW
LayerCount: 2
Fore
SplineSet
541 831 m 1
 592 840 l 1
 592 1 l 1
 541 -8 l 1
 541 44 l 1
 489 10 429 -8 366 -8 c 0
 197 -8 65 137 114 284 c 0
 137 355 198 399 270 419 c 1
 239 433 212 452 190 477 c 1
 173 474 156 472 140 470 c 1
 138 483 l 1
 152 484 167 486 182 488 c 1
 154 525 138 570 139 620 c 0
 143 748 261 840 394 840 c 0
 452 840 510 819 541 781 c 1
 541 831 l 1
541 637 m 1
 488 560 359 512 240 487 c 1
 272 453 316 432 366 432 c 1
 366 399 l 1
 286 399 209 358 180 284 c 0
 130 159 228 25 366 25 c 0
 429 25 490 45 541 82 c 1
 541 637 l 1
233 495 m 1
 378 521 538 586 536 699 c 0
 535 766 466 807 394 807 c 0
 286 807 195 726 191 620 c 0
 189 573 205 528 233 495 c 1
EndSplineSet
Comment: "desalph24.216.ps"
EndChar

StartChar: u1043B
Encoding: 66619 66619 59
Width: 595
VWidth: 0
Flags: HMW
LayerCount: 2
Fore
SplineSet
105 582 m 1
 105 716 186 840 311 840 c 0
 428 840 493 712 493 582 c 2
 493 -8 l 1
 441 -8 l 1
 441 582 l 2
 441 692 406 807 311 807 c 0
 204 807 138 698 138 582 c 1
 105 582 l 1
EndSplineSet
Comment: "desalph24.217.ps"
EndChar

StartChar: u1043C
Encoding: 66620 66620 60
Width: 713
VWidth: 0
Flags: HMW
LayerCount: 2
Fore
SplineSet
559 831 m 1
 611 840 l 1
 611 1 l 1
 559 -8 l 1
 559 46 l 1
 502 11 436 -8 369 -8 c 0
 199 -8 117 175 105 368 c 1
 103 368 l 1
 103 381 l 2
 104 381 l 0
 103 393 103 404 103 416 c 0
 103 611 224 840 399 840 c 0
 460 840 521 812 551 759 c 0
 554 753 556 748 559 742 c 1
 559 831 l 1
559 606 m 1
 508 501 343 419 156 378 c 1
 162 200 216 25 369 25 c 0
 437 25 503 46 559 84 c 1
 559 606 l 1
156 391 m 1
 407 446 621 573 526 738 c 0
 500 782 451 807 399 807 c 0
 245 807 156 592 156 416 c 0
 156 408 156 399 156 391 c 1
EndSplineSet
Comment: "desalph24.222.ps"
EndChar

StartChar: u1043D
Encoding: 66621 66621 61
Width: 745
VWidth: 0
Flags: HMW
LayerCount: 2
Fore
SplineSet
636 665 m 0
 636 648 629 631 617 619 c 0
 605 607 587 600 570 600 c 0
 553 600 536 607 524 619 c 0
 512 631 505 648 505 665 c 0
 505 682 512 700 524 712 c 0
 536 724 553 731 570 731 c 0
 578 731 586 730 593 727 c 1
 558 783 468 834 369 807 c 0
 215 765 169 585 169 416 c 0
 169 255 224 90 369 33 c 0
 459 -3 563 19 631 88 c 1
 640 79 l 1
 571 6 467 -25 369 0 c 0
 194 45 103 229 103 416 c 0
 103 614 187 814 369 840 c 0
 507 860 626 756 635 676 c 0
 636 672 636 669 636 665 c 0
EndSplineSet
Comment: "desalph24.223.ps"
EndChar

StartChar: u1043E
Encoding: 66622 66622 62
Width: 629
VWidth: 0
Flags: HMW
LayerCount: 2
Fore
SplineSet
511 665 m 0
 511 648 504 631 492 619 c 0
 480 607 463 600 446 600 c 0
 429 600 411 607 399 619 c 0
 387 631 380 648 380 665 c 0
 380 682 387 700 399 712 c 0
 411 724 429 731 446 731 c 0
 453 731 460 730 466 728 c 1
 442 766 394 802 340 807 c 0
 239 817 156 730 156 624 c 0
 156 445 376 360 497 491 c 1
 525 507 l 1
 319 -8 l 1
 254 -8 l 1
 471 444 l 1
 334 334 104 424 104 624 c 0
 104 756 214 862 340 840 c 0
 427 825 499 747 509 682 c 0
 510 677 511 671 511 665 c 0
EndSplineSet
Comment: "desalph24.229.ps"
EndChar

StartChar: u1043F
Encoding: 66623 66623 63
Width: 901
VWidth: 0
Flags: HMW
LayerCount: 2
Fore
SplineSet
448 166 m 0
 458 291 l 2
 471 291 l 2
 481 166 l 0
 487 95 551 22 619 25 c 0
 758 32 791 288 757 457 c 0
 722 632 631 807 465 807 c 0
 299 807 209 632 173 457 c 0
 139 292 165 38 303 25 c 0
 373 18 442 92 448 166 c 0
464 88 m 1
 434 28 368 -16 303 -8 c 0
 150 11 85 280 107 457 c 0
 133 665 270 851 465 840 c 0
 648 830 758 648 789 457 c 0
 817 281 770 10 619 -8 c 0
 556 -16 493 29 464 88 c 1
EndSplineSet
Comment: "desalph24.230.ps"
EndChar

StartChar: u10440
Encoding: 66624 66624 64
Width: 899
VWidth: 0
Flags: HMW
LayerCount: 2
Fore
SplineSet
459 291 m 2
 472 291 l 2
 482 166 l 0
 488 94 552 21 620 25 c 0
 737 32 770 211 765 368 c 1
 454 384 282 698 432 819 c 0
 432 820 l 1
 284 798 206 626 174 457 c 0
 143 292 165 38 303 25 c 0
 373 18 443 92 449 166 c 0
 459 291 l 2
465 88 m 1
 435 28 368 -16 303 -8 c 0
 150 11 83 280 108 457 c 0
 136 655 269 830 458 835 c 1
 584 890 762 682 790 457 c 0
 811 282 771 11 620 -8 c 0
 557 -16 494 29 465 88 c 1
765 381 m 1
 764 407 760 433 757 457 c 0
 727 672 564 884 452 794 c 0
 315 684 477 398 765 381 c 1
EndSplineSet
Comment: "desalph24.231.ps"
EndChar

StartChar: u10441
Encoding: 66625 66625 65
Width: 570
VWidth: 0
Flags: HMW
LayerCount: 2
Fore
SplineSet
155 -8 m 1
 102 -8 l 1
 102 665 l 0
 102 758 176 834 269 840 c 0
 391 847 488 738 461 620 c 0
 433 500 286 415 155 409 c 1
 155 -8 l 1
155 424 m 1
 273 435 402 512 428 620 c 0
 453 724 371 822 269 807 c 0
 201 797 155 735 155 665 c 2
 155 424 l 1
EndSplineSet
Comment: "desalph24.232.ps"
EndChar

StartChar: u10442
Encoding: 66626 66626 66
Width: 597
VWidth: 0
Flags: HMW
LayerCount: 2
Fore
SplineSet
163 455 m 1
 295 410 474 265 492 143 c 0
 503 70 453 2 381 -8 c 0
 201 -33 103 235 103 457 c 0
 103 678 212 884 381 840 c 0
 439 825 482 773 475 714 c 0
 463 602 290 480 163 455 c 1
162 441 m 1
 166 236 225 -10 381 25 c 0
 433 37 465 89 459 143 c 0
 446 257 285 395 162 441 c 1
162 468 m 1
 281 494 436 610 442 714 c 0
 444 755 420 792 381 807 c 0
 242 861 163 672 162 468 c 1
EndSplineSet
Comment: "desalph24.233.ps"
EndChar

StartChar: u10443
Encoding: 66627 66627 67
Width: 750
VWidth: 0
Flags: HMW
LayerCount: 2
Fore
SplineSet
643 45 m 1
 617 0 l 1
 102 0 l 1
 102 823 l 1
 159 856 l 1
 159 45 l 1
 643 45 l 1
EndSplineSet
Comment: "desalph24.234.ps"
EndChar

StartChar: u10444
Encoding: 66628 66628 68
Width: 797
VWidth: 0
Flags: HMW
LayerCount: 2
Fore
SplineSet
416 420 m 1
 297 229 273 25 421 25 c 0
 567 25 552 233 416 420 c 1
394 449 m 1
 106 813 l 1
 160 850 l 1
 427 493 l 1
 681 835 l 1
 692 828 l 1
 446 466 l 1
 606 247 593 -8 421 -8 c 0
 254 -8 245 235 394 449 c 1
EndSplineSet
Comment: "desalph24.235.ps"
EndChar

StartChar: u10445
Encoding: 66629 66629 69
Width: 665
VWidth: 0
Flags: HMW
LayerCount: 2
Fore
SplineSet
257 474 m 1
 211 466 162 459 117 451 c 1
 113 463 l 1
 155 470 199 477 242 484 c 1
 180 530 131 589 133 665 c 0
 136 765 227 838 331 840 c 0
 438 842 532 766 529 665 c 0
 525 557 437 513 326 487 c 1
 338 481 350 475 362 469 c 0
 380 459 397 449 414 437 c 1
 457 447 502 455 545 463 c 1
 550 451 l 1
 510 444 469 436 429 426 c 1
 517 361 578 269 558 166 c 0
 538 62 439 -6 331 -8 c 0
 219 -10 115 59 104 166 c 0
 90 301 203 374 347 418 c 1
 332 428 315 437 300 446 c 0
 285 455 271 464 257 474 c 1
363 408 m 1
 223 365 114 294 137 166 c 0
 153 78 239 25 331 25 c 0
 423 25 509 78 525 166 c 0
 544 271 459 346 363 408 c 1
308 497 m 1
 415 521 500 562 497 665 c 0
 495 748 417 806 331 807 c 0
 244 808 166 748 166 665 c 0
 166 585 234 538 308 497 c 1
EndSplineSet
Comment: "desalph24.236.ps"
EndChar

StartChar: u10446
Encoding: 66630 66630 70
Width: 742
VWidth: 0
Flags: HMW
LayerCount: 2
Fore
SplineSet
171 420 m 0
 171 419 170 417 170 416 c 0
 145 239 210 54 371 25 c 0
 489 4 598 89 604 208 c 0
 614 409 375 529 171 420 c 0
176 452 m 1
 398 551 645 422 637 208 c 0
 632 73 508 -26 371 -8 c 0
 186 16 91 216 105 416 c 0
 125 696 314 858 594 837 c 1
 626 837 l 1
 380 822 222 687 176 452 c 1
EndSplineSet
Comment: "desalph24.237.ps"
EndChar

StartChar: u10447
Encoding: 66631 66631 71
Width: 714
VWidth: 0
Flags: HMW
LayerCount: 2
Fore
SplineSet
102 831 m 1
 154 840 l 1
 154 786 l 1
 211 821 277 840 344 840 c 0
 528 840 610 626 610 416 c 0
 610 206 528 -8 344 -8 c 0
 277 -8 211 11 154 46 c 1
 154 1 l 1
 102 -8 l 1
 102 831 l 1
154 748 m 1
 154 84 l 1
 210 46 276 25 344 25 c 0
 508 25 558 226 558 416 c 0
 558 606 508 807 344 807 c 0
 276 807 210 786 154 748 c 1
EndSplineSet
Comment: "desalph24.238.ps"
EndChar

StartChar: u10448
Encoding: 66632 66632 72
Width: 731
VWidth: 0
Flags: HMW
LayerCount: 2
Fore
SplineSet
231 225 m 0
 231 212 226 199 217 190 c 0
 208 181 195 175 182 175 c 0
 169 175 156 181 147 190 c 0
 139 198 134 208 133 219 c 1
 95 164 170 25 362 25 c 0
 487 25 593 117 579 233 c 0
 565 346 445 398 335 439 c 0
 233 477 128 535 122 640 c 0
 115 758 233 840 362 840 c 0
 641 840 669 574 541 574 c 0
 528 574 515 580 506 589 c 0
 497 598 492 611 492 624 c 0
 492 637 497 649 506 658 c 0
 515 667 528 673 541 673 c 0
 554 673 567 667 576 658 c 0
 584 650 589 641 590 631 c 1
 620 684 540 807 362 807 c 0
 256 807 161 736 172 640 c 0
 183 543 292 508 388 476 c 0
 508 435 622 356 628 233 c 0
 635 95 508 -8 362 -8 c 0
 70 -8 48 274 182 274 c 0
 195 274 208 268 217 259 c 0
 226 250 231 238 231 225 c 0
EndSplineSet
Comment: "desalph24.239.ps"
EndChar

StartChar: u10449
Encoding: 66633 66633 73
Width: 683
VWidth: 0
Flags: HMW
LayerCount: 2
Fore
SplineSet
318 813 m 1
 364 840 l 1
 364 392 l 1
 468 402 554 481 570 587 c 1
 578 577 l 1
 569 461 478 370 364 359 c 1
 364 18 l 1
 318 -8 l 1
 318 358 l 1
 209 363 105 404 105 499 c 0
 105 592 247 625 318 540 c 1
 318 813 l 1
318 391 m 1
 318 468 l 1
 285 591 138 577 138 499 c 0
 138 421 227 395 318 391 c 1
EndSplineSet
Comment: "desalph24.241.ps"
EndChar

StartChar: u1044A
Encoding: 66634 66634 74
Width: 595
VWidth: 0
Flags: HMW
LayerCount: 2
Fore
SplineSet
491 249 m 1
 491 115 409 -8 284 -8 c 0
 167 -8 102 119 102 249 c 2
 102 840 l 1
 155 840 l 1
 155 249 l 2
 155 139 189 25 284 25 c 0
 391 25 458 133 458 249 c 1
 491 249 l 1
EndSplineSet
Comment: "desalph24.242.ps"
EndChar

StartChar: u1044B
Encoding: 66635 66635 75
Width: 682
VWidth: 0
Flags: HMW
LayerCount: 2
Fore
SplineSet
229 624 m 0
 229 611 224 598 215 589 c 0
 206 580 193 574 180 574 c 0
 55 574 71 840 342 840 c 0
 486 840 578 695 578 540 c 0
 578 276 394 48 136 -8 c 1
 126 1 l 1
 357 80 512 296 512 540 c 0
 512 672 459 807 342 807 c 0
 172 807 105 687 132 633 c 1
 134 642 138 651 145 658 c 0
 154 667 167 673 180 673 c 0
 193 673 206 667 215 658 c 0
 224 649 229 637 229 624 c 0
EndSplineSet
Comment: "desalph24.243.ps"
EndChar

StartChar: u1044C
Encoding: 66636 66636 76
Width: 450
VWidth: 0
Flags: HMW
LayerCount: 2
Fore
SplineSet
103 827 m 1
 149 853 l 1
 149 421 l 1
 347 557 l 1
 347 540 l 1
 347 524 l 1
 347 5 l 1
 302 -21 l 1
 302 493 l 1
 103 358 l 1
 103 374 l 1
 103 391 l 1
 103 827 l 1
EndSplineSet
Comment: "desalph24.244.ps"
EndChar

StartChar: u1044D
Encoding: 66637 66637 77
Width: 747
VWidth: 0
Flags: HMW
LayerCount: 2
Fore
SplineSet
102 840 m 1
 161 840 l 1
 161 149 l 1
 587 840 l 1
 646 840 l 1
 646 -8 l 1
 587 -8 l 1
 587 774 l 1
 161 84 l 1
 102 -12 l 1
 102 53 l 1
 102 840 l 1
EndSplineSet
Comment: "desalph24.245.ps"
EndChar

StartChar: u1044F
Encoding: 66639 66639 78
Width: 859
VWidth: 0
Flags: HMW
LayerCount: 2
Fore
SplineSet
446 840 m 0
 642 831 755 628 755 416 c 0
 755 204 642 1 446 -8 c 0
 241 -18 103 191 103 416 c 0
 103 641 241 850 446 840 c 0
429 806 m 1
 261 795 169 608 169 416 c 0
 169 224 261 36 429 25 c 1
 429 530 l 1
 302 599 l 1
 302 648 l 1
 429 570 l 1
 429 806 l 1
462 25 m 1
 630 36 723 224 723 416 c 0
 723 608 630 795 462 806 c 1
 462 551 l 1
 589 482 l 1
 589 433 l 1
 462 511 l 1
 462 25 l 1
EndSplineSet
Substitution2: "'ss01' Style Set 1 in Deseret (Mormon) lookup 0-1" u1044F.ss01
Comment: "desalph24.246.ps"
EndChar

StartChar: u1044F.ss01
Encoding: 1114113 -1 79
Width: 558
VWidth: 0
Flags: HMW
LayerCount: 2
Fore
SplineSet
205 665 m 0
 205 652 200 639 191 630 c 0
 182 621 169 616 156 616 c 0
 143 616 130 621 121 630 c 0
 112 639 107 652 107 665 c 0
 108 773 205 856 312 840 c 0
 398 827 460 751 454 665 c 0
 450 612 416 514 370 406 c 1
 454 372 l 1
 438 336 l 1
 356 375 l 1
 283 211 186 35 128 -20 c 1
 105 3 l 1
 164 55 260 226 331 386 c 1
 247 420 l 1
 262 456 l 1
 344 417 l 1
 388 520 419 614 421 665 c 0
 424 732 378 792 312 807 c 0
 235 824 162 779 137 711 c 1
 143 713 150 714 156 714 c 0
 169 714 182 709 191 700 c 0
 200 691 205 678 205 665 c 0
EndSplineSet
Comment: "desalph24.247.ps"
EndChar

StartChar: u10426
Encoding: 66598 66598 80
Width: 1029
VWidth: 0
Flags: HMW
LayerCount: 2
Fore
SplineSet
505 900 m 1
 505 974 l 1
 948 718 l 1
 948 645 l 1
 505 900 l 1
711 1196 m 1
 760 1196 l 1
 760 -8 l 1
 486 315 l 1
 376 -8 l 1
 105 315 l 1
 105 397 l 1
 376 74 l 1
 486 397 l 1
 715 120 l 1
 711 1196 l 1
EndSplineSet
Substitution2: "'ss01' Style Set 1 in Deseret (Mormon) lookup 0-1" u10426.ss01
EndChar

StartChar: u1044E
Encoding: 66638 66638 81
Width: 772
VWidth: 0
Flags: HMW
LayerCount: 2
Fore
SplineSet
381 616 m 1
 381 675 l 1
 691 496 l 1
 691 437 l 1
 381 616 l 1
522 840 m 1
 561 840 l 1
 561 166 l 1
 561 51 l 1
 561 -8 l 1
 527 32 l 1
 369 218 l 1
 294 -8 l 1
 105 218 l 1
 105 283 l 1
 294 57 l 1
 369 283 l 1
 525 95 l 1
 522 166 l 1
 522 840 l 1
EndSplineSet
Substitution2: "'ss01' Style Set 1 in Deseret (Mormon) lookup 0-1" u1044E.ss01
EndChar

StartChar: u10426.ss01
Encoding: 1114114 -1 82
Width: 1134
VWidth: 0
Flags: HMW
LayerCount: 2
Fore
SplineSet
588 622 m 1
 555 622 l 29
 770 889 l 29
 803 889 l 1
 588 622 l 1
551 1196 m 1
 609 1230 687 1215 751 1179 c 0
 942 1071 1019 849 1021 626 c 0
 1023 626 1025 626 1027 626 c 2
 1030 610 l 1
 1027 610 1024 609 1021 609 c 0
 1021 604 1021 599 1021 594 c 0
 1013 287 844 -6 562 -8 c 0
 278 -10 102 284 103 594 c 0
 104 899 274 1189 551 1196 c 1
980 629 m 1
 976 841 906 1055 722 1150 c 0
 667 1178 602 1189 557 1150 c 0
 508 1107 515 1032 540 969 c 0
 614 783 784 653 980 629 c 1
980 609 m 1
 761 617 567 761 499 973 c 0
 476 1045 473 1127 527 1178 c 1
 292 1153 177 873 185 594 c 0
 193 320 313 46 562 33 c 0
 822 20 976 301 980 594 c 0
 980 599 980 604 980 609 c 1
EndSplineSet
EndChar

StartChar: u1044E.ss01
Encoding: 1114115 -1 83
Width: 869
VWidth: 0
Flags: HMW
LayerCount: 2
Fore
SplineSet
449 435 m 1
 426 435 l 25
 577 622 l 25
 600 622 l 1
 449 435 l 1
418 838 m 1
 460 865 518 853 566 826 c 0
 699 750 755 595 756 439 c 0
 758 439 760 439 762 439 c 2
 765 426 l 1
 762 426 758 425 755 425 c 0
 755 422 755 419 755 416 c 0
 749 199 628 -7 429 -8 c 0
 228 -9 102 197 103 416 c 0
 104 629 225 830 418 838 c 1
722 443 m 1
 718 590 670 736 543 803 c 0
 505 823 457 831 426 803 c 0
 391 772 398 720 418 675 c 0
 473 550 588 462 722 443 c 1
723 426 m 0
 571 433 437 531 386 677 c 0
 368 728 365 786 400 823 c 1
 240 802 163 609 169 416 c 0
 175 226 256 35 429 25 c 0
 611 14 720 211 723 416 c 0
 723 419 723 423 723 426 c 0
EndSplineSet
EndChar
